<svg width="32" height="32" viewBox="0 0 32 32" fill="none" xmlns="http://www.w3.org/2000/svg">
<path d="M6 4V16.82C6 20.608 8.14 24.07 11.528 25.764L16 28L20.472 25.764C23.86 24.07 26 20.607 26 16.82V4H6ZM24 14H17V6H24V14ZM15 6V14H8V6H15ZM8 16.82V16H15V25.264L12.422 23.975C9.695 22.611 8 19.869 8 16.82ZM19.578 23.975L17 25.264V16H24V16.82C24 19.869 22.305 22.611 19.578 23.975Z" fill="url(#paint0_linear_1023_81)"/>
<defs>
<linearGradient id="paint0_linear_1023_81" x1="6" y1="3.73333" x2="27.0978" y2="4.74065" gradientUnits="userSpaceOnUse">
<stop stop-color="#DB5700"/>
<stop offset="1" stop-color="#823300"/>
</linearGradient>
</defs>
</svg>
