<svg width="32" height="32" viewBox="0 0 32 32" fill="none" xmlns="http://www.w3.org/2000/svg">
<path d="M10.5 8V10C9.122 10 8 11.121 8 12.5H6C6 10.019 8.019 8 10.5 8Z" fill="url(#paint0_linear_1023_1200)"/>
<path d="M21.5 5C19.384 5 17.407 5.881 16 7.406C14.593 5.881 12.616 5 10.5 5C6.364 5 3 8.333 3 12.5C3 21.542 16 27 16 27C16 27 29 21.542 29 12.5C29 8.333 25.636 5 21.5 5ZM16 24.797C13.378 23.521 5 18.938 5 12.5C5 9.467 7.467 7 10.5 7C12.05 7 13.482 7.626 14.53 8.762L15.265 9.559H16.735L17.47 8.762C18.518 7.626 19.95 7 21.5 7C24.533 7 27 9.467 27 12.5C27 18.938 18.622 23.521 16 24.797Z" fill="url(#paint1_linear_1023_1200)"/>
<defs>
<linearGradient id="paint0_linear_1023_1200" x1="6" y1="7.95" x2="10.7423" y2="8.2217" gradientUnits="userSpaceOnUse">
<stop stop-color="#DB5700"/>
<stop offset="1" stop-color="#823300"/>
</linearGradient>
<linearGradient id="paint1_linear_1023_1200" x1="3" y1="4.75556" x2="30.3642" y2="6.60842" gradientUnits="userSpaceOnUse">
<stop stop-color="#DB5700"/>
<stop offset="1" stop-color="#823300"/>
</linearGradient>
</defs>
</svg>
