<svg width="32" height="32" viewBox="0 0 32 32" fill="none" xmlns="http://www.w3.org/2000/svg">
<path d="M21.216 18.058C22.918 16.591 24 14.424 24 12C24 7.582 20.418 4 16 4C11.582 4 7.99998 7.582 7.99998 12C7.99998 14.424 9.08198 16.591 10.784 18.058L5.19598 27H10.586L14.614 31.028L16 24.099L17.386 31.029L21.414 27H26.804L21.216 18.058ZM9.99998 12C9.99998 8.692 12.692 6 16 6C19.308 6 22 8.692 22 12C22 15.308 19.308 18 16 18C12.692 18 9.99998 15.308 9.99998 12ZM13.386 26.972L11.414 25H8.80398L12.453 19.163C13.18 19.524 13.969 19.775 14.8 19.901L13.386 26.972ZM20.586 25L18.614 26.972L17.2 19.9C18.032 19.775 18.82 19.523 19.547 19.162L23.196 25H20.586ZM15 11H14V9H17V15H15V11Z" fill="url(#paint0_linear_1023_1227)"/>
<defs>
<linearGradient id="paint0_linear_1023_1227" x1="5.19598" y1="3.69968" x2="27.9942" y2="4.7439" gradientUnits="userSpaceOnUse">
<stop stop-color="#DB5700"/>
<stop offset="1" stop-color="#823300"/>
</linearGradient>
</defs>
</svg>
